<?xml version="1.0" encoding="UTF-8" standalone="no"?>
<!-- Generator: Gravit.io -->
<svg xmlns="http://www.w3.org/2000/svg" xmlns:xlink="http://www.w3.org/1999/xlink" style="isolation:isolate" viewBox="0 0 256 256" width="256pt" height="256pt"><defs><clipPath id="_clipPath_UKv3BTtjQgwiLTKDk01arH7XVRzA3XzA"><rect width="256" height="256"/></clipPath></defs><g clip-path="url(#_clipPath_UKv3BTtjQgwiLTKDk01arH7XVRzA3XzA)"><rect width="256" height="256" style="fill:rgb(23,23,23)" fill-opacity="0"/><path d=" M 128 85.333 L 128 85.333 L 170.667 85.333 L 170.667 85.333 L 170.667 42.667 L 128 42.667 L 128 42.667 L 85.333 42.667 L 85.333 85.333 L 128 85.333 Z  M 128 213.333 L 170.667 213.333 L 170.667 213.333 L 170.667 170.667 L 128 170.667 L 128 170.667 L 85.333 170.667 L 85.333 213.333 L 128 213.333 L 128 213.333 L 128 213.333 L 128 213.333 Z  M 213.333 128 L 256 128 L 256 170.667 L 256 170.667 L 213.333 170.667 L 213.333 170.667 L 213.333 170.667 L 170.667 170.667 L 170.667 128 L 170.667 128 L 170.667 85.333 L 213.333 85.333 L 213.333 128 L 213.333 128 L 213.333 128 L 213.333 128 L 213.333 128 L 213.333 128 L 213.333 128 L 213.333 128 L 213.333 128 L 213.333 128 Z  M 42.667 128 L 85.333 128 L 85.333 170.667 L 42.667 170.667 L 42.667 128 L 42.667 128 L 42.667 128 L 42.667 128 L 42.667 128 L 42.667 128 Z  M 0 170.667 L 0 128 L 42.667 128 L 42.667 128 L 42.667 128 L 85.333 128 L 85.333 85.333 L 42.667 85.333 L 42.667 85.333 L 0 85.333 L 0 85.333 L 0 0 L 0 0 L 0 0 L 0 0 L 256 0 L 256 42.667 L 256 42.667 L 213.333 42.667 L 213.333 85.333 L 256 85.333 L 256 256 L 0 256 L 0 213.333 L 42.667 213.333 L 42.667 170.667 L 0 170.667 L 0 170.667 L 0 170.667 L 0 170.667 L 0 170.667 Z " fill-rule="evenodd" fill="rgb(0,0,0)"/></g></svg>